<?xml version="1.0" encoding="UTF-8"?>
<svg id="Layer_1" data-name="Layer 1" xmlns="http://www.w3.org/2000/svg" viewBox="0 0 64 64">
  <defs>
    <style>
      .cls-1 {
        fill: #003d7e;
      }

      .cls-2 {
        fill: #f58426;
      }

      .cls-3 {
        fill: #fff;
      }
    </style>
  </defs>
  <rect class="cls-1" width="64" height="64" rx="7.99" ry="7.99"/>
  <path class="cls-2" d="M60.68,7.22v46.48c0,4.42-3.58,8-8,8h-28.89c7.45-10.87,28.86-42.58,36.89-54.48Z"/>
  <path class="cls-3" d="M35.21,38.02h-9.1v15.41h-8.9V10.56h18.67c4.3,0,7.74,1.11,10.3,3.32s3.84,5.63,3.84,10.27c0,5.06-1.28,8.64-3.84,10.73s-6.21,3.14-10.96,3.14ZM39.4,29.09c1.16-1.03,1.75-2.66,1.75-4.89s-.59-3.82-1.76-4.77-2.82-1.43-4.93-1.43h-8.35v12.62h8.35c2.11,0,3.76-.51,4.94-1.54Z"/>
</svg>